:FULLY-SPECIFIED
:FORCE-ALL-JOINTS-BE-3DOF
:DEGREES
291
root 10.0642 16.8795 3.83415 5.61871 1.5629 3.29516
lfemur -2.8076 4.83906 -29.2733
ltibia 17.9274 0 0
lfoot -18.6333 4.15255 0
ltoes -3.4246 0 0
rfemur -37.0249 1.02068 15.0309
rtibia 41.8995 0 0
rfoot -21.3 -11.3161 0
rtoes -22.9922 0 0
lowerback -5.80953 -3.58632 -4.58121
upperback -0.155404 -4.546 2.11077
thorax 3.62574 -2.36083 4.33501
lowerneck -21.6868 -3.91974 -11.5059
upperneck 22.9623 -4.68478 11.2342
head 11.6506 -1.72644 5.38099
lclavicle 1.97625e-14 5.03588e-15 0
lhumerus -11.5595 -21.6991 86.3398
lradius 27.2922 0 0
lwrist 6.95407 0 0
lhand -15.8124 -23.7491 0
lfingers 7.12502 0 0
lthumb 10.3812 5.97452 0
rclavicle 1.97625e-14 5.03588e-15 0
rhumerus -47.6621 8.03567 -83.3311
rradius 40.5536 0 0
rwrist -23.4324 0 0
rhand -30.905 -24.3424 0
rfingers 7.12502 0 0
rthumb -4.19141 -54.2807 0
292
root 10.0641 16.881 3.96923 5.79589 1.97071 3.33543
lfemur -1.80572 4.7273 -29.2092
ltibia 16.6022 0 0
lfoot -18.3139 3.88627 0
ltoes -2.92959 0 0
rfemur -37.4925 1.46547 14.5923
rtibia 40.1103 0 0
rfoot -21.4237 -10.8865 0
rtoes -22.4886 0 0
lowerback -6.05711 -3.67768 -4.64968
upperback -0.152002 -4.6525 2.11074
thorax 3.78602 -2.41838 4.3463
lowerneck -21.7176 -4.00536 -11.5454
upperneck 22.9514 -4.8108 11.3112
head 11.6738 -1.77631 5.39664
lclavicle 2.17421e-14 5.56597e-15 0
lhumerus -11.1874 -22.8229 86.4155
lradius 27.8008 0 0
lwrist 8.1503 0 0
lhand -15.7402 -23.368 0
lfingers 7.12502 0 0
lthumb 10.4509 6.35208 0
rclavicle 2.17421e-14 5.56597e-15 0
rhumerus -47.7626 7.98253 -83.377
rradius 40.31 0 0
rwrist -23.2907 0 0
rhand -30.9964 -25.7585 0
rfingers 7.12502 0 0
rthumb -4.27965 -55.6951 0
293
root 10.0641 16.8825 4.10432 5.97306 2.37853 3.3757
lfemur -0.803837 4.61554 -29.1451
ltibia 15.2769 0 0
lfoot -17.9945 3.62 0
ltoes -2.43459 0 0
rfemur -37.96 1.91027 14.1537
rtibia 38.321 0 0
rfoot -21.5473 -10.4568 0
rtoes -21.9849 0 0
lowerback -6.30469 -3.76905 -4.71814
upperback -0.148601 -4.759 2.11071
thorax 3.94631 -2.47594 4.35759
lowerneck -21.7485 -4.09098 -11.5849
upperneck 22.9405 -4.93682 11.3883
head 11.697 -1.82618 5.4123
lclavicle 2.37217e-14 6.09606e-15 0
lhumerus -10.8152 -23.9468 86.4912
lradius 28.3094 0 0
lwrist 9.34653 0 0
lhand -15.668 -22.987 0
lfingers 7.12502 0 0
lthumb 10.5205 6.72964 0
rclavicle 2.37217e-14 6.09606e-15 0
rhumerus -47.863 7.92939 -83.423
rradius 40.0663 0 0
rwrist -23.1491 0 0
rhand -31.0878 -27.1747 0
rfingers 7.12502 0 0
rthumb -4.36789 -57.1096 0
294
root 10.0641 16.884 4.23941 6.15024 2.78634 3.41596
lfemur 0.198047 4.50379 -29.081
ltibia 13.9516 0 0
lfoot -17.675 3.35372 0
ltoes -1.93958 0 0
rfemur -38.4275 2.35506 13.7151
rtibia 36.5318 0 0
rfoot -21.6709 -10.0271 0
rtoes -21.4813 0 0
lowerback -6.55226 -3.86042 -4.7866
upperback -0.1452 -4.8655 2.11067
thorax 4.10659 -2.53349 4.36888
lowerneck -21.7793 -4.17661 -11.6244
upperneck 22.9295 -5.06283 11.4653
head 11.7201 -1.87605 5.42795
lclavicle 2.57012e-14 6.62616e-15 0
lhumerus -10.443 -25.0707 86.5668
lradius 28.818 0 0
lwrist 10.5428 0 0
lhand -15.5959 -22.6059 0
lfingers 7.12502 0 0
lthumb 10.5901 7.10721 0
rclavicle 2.57012e-14 6.62616e-15 0
rhumerus -47.9634 7.87624 -83.469
rradius 39.8226 0 0
rwrist -23.0074 0 0
rhand -31.1791 -28.5909 0
rfingers 7.12502 0 0
rthumb -4.45612 -58.524 0
295
root 10.0641 16.8855 4.3745 6.32741 3.19415 3.45623
lfemur 1.19993 4.39203 -29.0169
ltibia 12.6263 0 0
lfoot -17.3556 3.08744 0
ltoes -1.44458 0 0
rfemur -38.895 2.79986 13.2765
rtibia 34.7426 0 0
rfoot -21.7945 -9.59742 0
rtoes -20.9777 0 0
lowerback -6.79984 -3.95179 -4.85507
upperback -0.141798 -4.972 2.11064
thorax 4.26687 -2.59104 4.38017
lowerneck -21.8102 -4.26223 -11.6639
upperneck 22.9186 -5.18885 11.5423
head 11.7433 -1.92592 5.4436
lclavicle 2.76808e-14 7.15625e-15 0
lhumerus -10.0708 -26.1945 86.6425
lradius 29.3266 0 0
lwrist 11.739 0 0
lhand -15.5237 -22.2248 0
lfingers 7.12502 0 0
lthumb 10.6597 7.48477 0
rclavicle 2.76808e-14 7.15625e-15 0
rhumerus -48.0638 7.8231 -83.515
rradius 39.5789 0 0
rwrist -22.8658 0 0
rhand -31.2705 -30.0071 0
rfingers 7.12502 0 0
rthumb -4.54436 -59.9384 0
296
root 10.0608 16.883 4.52125 6.41041 3.61645 3.5612
lfemur 2.78326 4.19104 -28.9792
ltibia 10.5219 0 0
lfoot -16.7062 3.02037 0
ltoes -1.74318 0 0
rfemur -39.2611 4.0986 12.1683
rtibia 33.5277 0 0
rfoot -22.4002 -10.0853 0
rtoes -20.0949 0 0
lowerback -6.90694 -4.05942 -5.0031
upperback -0.197457 -5.09794 2.09946
thorax 4.29691 -2.65559 4.42939
lowerneck -21.5234 -4.29542 -11.7483
upperneck 22.8511 -5.2403 11.5602
head 11.6724 -1.96238 5.45279
lclavicle 1.95141e-14 7.15625e-15 0
lhumerus -10.1242 -27.1661 86.8613
lradius 30.0322 0 0
lwrist 12.7746 0 0
lhand -15.3241 -21.8957 0
lfingers 7.12502 0 0
lthumb 10.8522 7.80342 0
rclavicle 1.95141e-14 7.15625e-15 0
rhumerus -48.1702 7.59585 -83.4532
rradius 39.0994 0 0
rwrist -22.4155 0 0
rhand -31.2446 -29.5539 0
rfingers 7.12502 0 0
rthumb -4.51936 -59.4857 0
297
root 10.0575 16.8806 4.668 6.49341 4.03876 3.66617
lfemur 4.36659 3.99004 -28.9414
ltibia 8.41753 0 0
lfoot -16.0567 2.9533 0
ltoes -2.04177 0 0
rfemur -39.6272 5.39734 11.0601
rtibia 32.3128 0 0
rfoot -23.0059 -10.5731 0
rtoes -19.2121 0 0
lowerback -7.01404 -4.16705 -5.15113
upperback -0.253116 -5.22388 2.08827
thorax 4.32695 -2.72015 4.4786
lowerneck -21.2366 -4.32861 -11.8327
upperneck 22.7836 -5.29174 11.578
head 11.6014 -1.99884 5.46197
lclavicle 1.13473e-14 7.15625e-15 0
lhumerus -10.1776 -28.1377 87.0801
lradius 30.7378 0 0
lwrist 13.8101 0 0
lhand -15.1245 -21.5666 0
lfingers 7.12502 0 0
lthumb 11.0447 8.12207 0
rclavicle 1.13473e-14 7.15625e-15 0
rhumerus -48.2766 7.3686 -83.3914
rradius 38.62 0 0
rwrist -21.9653 0 0
rhand -31.2187 -29.1006 0
rfingers 7.12502 0 0
rthumb -4.49435 -59.033 0
298
root 10.0542 16.8781 4.81475 6.57641 4.46106 3.77114
lfemur 5.94991 3.78904 -28.9036
ltibia 6.31315 0 0
lfoot -15.4072 2.88623 0
ltoes -2.34037 0 0
rfemur -39.9933 6.69608 9.95182
rtibia 31.098 0 0
rfoot -23.6116 -11.061 0
rtoes -18.3293 0 0
lowerback -7.12113 -4.27468 -5.29916
upperback -0.308775 -5.34983 2.07709
thorax 4.35699 -2.7847 4.52782
lowerneck -20.9498 -4.36181 -11.9171
upperneck 22.7161 -5.34319 11.5958
head 11.5305 -2.0353 5.47116
lclavicle 3.18055e-15 7.15625e-15 0
lhumerus -10.2309 -29.1093 87.2989
lradius 31.4434 0 0
lwrist 14.8457 0 0
lhand -14.9249 -21.2374 0
lfingers 7.12502 0 0
lthumb 11.2372 8.44073 0
rclavicle 3.18055e-15 7.15625e-15 0
rhumerus -48.383 7.14135 -83.3297
rradius 38.1405 0 0
rwrist -21.515 0 0
rhand -31.1928 -28.6474 0
rfingers 7.12502 0 0
rthumb -4.46935 -58.5802 0
